<svg width="60" height="31" viewBox="0 0 60 31" fill="none" xmlns="http://www.w3.org/2000/svg">
<path d="M7.128 27.288C5.63467 27.288 4.38667 26.968 3.384 26.328C2.40267 25.688 1.656 24.8027 1.144 23.672C0.632 22.5413 0.333333 21.2293 0.248 19.736L3.448 18.872C3.512 19.7893 3.65067 20.6747 3.864 21.528C4.09867 22.3813 4.472 23.0853 4.984 23.64C5.496 24.1733 6.21067 24.44 7.128 24.44C8.06667 24.44 8.77067 24.184 9.24 23.672C9.73067 23.1387 9.976 22.3813 9.976 21.4C9.976 20.2267 9.70933 19.288 9.176 18.584C8.64267 17.8587 7.97067 17.1333 7.16 16.408L2.808 12.568C1.95467 11.8213 1.32533 11.0107 0.92 10.136C0.514667 9.24 0.312 8.14133 0.312 6.84C0.312 4.94133 0.856 3.46933 1.944 2.424C3.032 1.37867 4.51467 0.855999 6.392 0.855999C7.416 0.855999 8.312 0.994666 9.08 1.272C9.86933 1.528 10.52 1.93333 11.032 2.488C11.5653 3.04267 11.9813 3.74667 12.28 4.6C12.6 5.432 12.8133 6.41333 12.92 7.544L9.848 8.376C9.784 7.52267 9.656 6.744 9.464 6.04C9.272 5.31467 8.93067 4.73867 8.44 4.312C7.97067 3.864 7.288 3.64 6.392 3.64C5.496 3.64 4.792 3.88533 4.28 4.376C3.78933 4.84533 3.544 5.54933 3.544 6.488C3.544 7.27733 3.672 7.928 3.928 8.44C4.20533 8.952 4.64267 9.47467 5.24 10.008L9.624 13.848C10.6053 14.7013 11.4693 15.7253 12.216 16.92C12.9627 18.0933 13.336 19.4907 13.336 21.112C13.336 22.392 13.0693 23.5013 12.536 24.44C12.0027 25.3573 11.2667 26.0613 10.328 26.552C9.41067 27.0427 8.344 27.288 7.128 27.288ZM20.781 27.256C19.821 27.256 19.0423 27.0747 18.445 26.712C17.869 26.3493 17.4423 25.8373 17.165 25.176C16.909 24.5147 16.781 23.736 16.781 22.84V10.776H14.829V8.504H16.781V3.096H20.205V8.504H23.181V10.776H20.205V22.616C20.205 23.3413 20.3223 23.864 20.557 24.184C20.7917 24.4827 21.2397 24.632 21.901 24.632C22.0717 24.632 22.2637 24.6213 22.477 24.6C22.7117 24.5787 22.9357 24.5573 23.149 24.536V27.064C22.7223 27.128 22.3277 27.1707 21.965 27.192C21.6023 27.2347 21.2077 27.256 20.781 27.256ZM27.0408 30.04L26.0168 29.688L34.5288 5.624L35.7128 6.008L27.0408 30.04ZM30.7848 27.256C29.4194 27.256 28.3421 26.9787 27.5528 26.424C26.7634 25.8693 26.1981 25.08 25.8568 24.056C25.5368 23.032 25.3768 21.8267 25.3768 20.44V15.064C25.3768 13.6773 25.5368 12.472 25.8568 11.448C26.1981 10.424 26.7634 9.63467 27.5528 9.08C28.3421 8.52533 29.4194 8.248 30.7848 8.248C32.1501 8.248 33.2168 8.52533 33.9848 9.08C34.7741 9.63467 35.3288 10.424 35.6488 11.448C35.9901 12.472 36.1608 13.6773 36.1608 15.064V20.44C36.1608 21.8267 35.9901 23.032 35.6488 24.056C35.3288 25.08 34.7741 25.8693 33.9848 26.424C33.2168 26.9787 32.1501 27.256 30.7848 27.256ZM30.7848 24.728C31.4461 24.728 31.9048 24.536 32.1608 24.152C32.4381 23.768 32.5981 23.2667 32.6408 22.648C32.7048 22.008 32.7368 21.3467 32.7368 20.664V14.872C32.7368 14.168 32.7048 13.5067 32.6408 12.888C32.5981 12.2693 32.4381 11.768 32.1608 11.384C31.9048 10.9787 31.4461 10.776 30.7848 10.776C30.1234 10.776 29.6541 10.9787 29.3768 11.384C29.0994 11.768 28.9288 12.2693 28.8648 12.888C28.8221 13.5067 28.8008 14.168 28.8008 14.872V20.664C28.8008 21.3467 28.8221 22.008 28.8648 22.648C28.9288 23.2667 29.0994 23.768 29.3768 24.152C29.6541 24.536 30.1234 24.728 30.7848 24.728ZM40.3473 27V11.032H38.1393V8.504H40.3473V7.544C40.3473 6.392 40.4326 5.41066 40.6033 4.6C40.7953 3.768 41.1793 3.128 41.7552 2.68C42.3313 2.232 43.1953 2.008 44.3473 2.008C44.7739 2.008 45.1473 2.02933 45.4673 2.072C45.8086 2.09333 46.1819 2.14666 46.5873 2.232V4.728C46.3953 4.68533 46.1819 4.65333 45.9473 4.632C45.7126 4.58933 45.4993 4.568 45.3073 4.568C44.6459 4.568 44.2193 4.792 44.0273 5.24C43.8566 5.66667 43.7713 6.24267 43.7713 6.968V8.504H46.5873V11.032H43.7713V27H40.3473ZM48.6993 27V11.032H46.4913V8.504H48.6993V7.544C48.6993 6.392 48.7846 5.41066 48.9553 4.6C49.1473 3.768 49.5313 3.128 50.1073 2.68C50.6833 2.232 51.5473 2.008 52.6993 2.008C53.1259 2.008 53.4993 2.02933 53.8193 2.072C54.1606 2.09333 54.5339 2.14666 54.9393 2.232V4.728C54.7473 4.68533 54.5339 4.65333 54.2993 4.632C54.0646 4.58933 53.8513 4.568 53.6593 4.568C52.9979 4.568 52.5713 4.792 52.3793 5.24C52.2086 5.66667 52.1233 6.24267 52.1233 6.968V8.504H54.9393V11.032H52.1233V27H48.6993ZM56.193 27V23.192H59.617V27H56.193Z" fill="white"/>
</svg>
