<svg width="68" height="34" viewBox="0 0 68 34" fill="none" xmlns="http://www.w3.org/2000/svg">
<path d="M8.144 30.324C6.464 30.324 5.06 29.964 3.932 29.244C2.828 28.524 1.988 27.528 1.412 26.256C0.836 24.984 0.5 23.508 0.404 21.828L4.004 20.856C4.076 21.888 4.232 22.884 4.472 23.844C4.736 24.804 5.156 25.596 5.732 26.22C6.308 26.82 7.112 27.12 8.144 27.12C9.2 27.12 9.992 26.832 10.52 26.256C11.072 25.656 11.348 24.804 11.348 23.7C11.348 22.38 11.048 21.324 10.448 20.532C9.848 19.716 9.092 18.9 8.18 18.084L3.284 13.764C2.324 12.924 1.616 12.012 1.16 11.028C0.704 10.02 0.476 8.784 0.476 7.32C0.476 5.184 1.088 3.528 2.312 2.352C3.536 1.176 5.204 0.587999 7.316 0.587999C8.468 0.587999 9.476 0.743999 10.34 1.056C11.228 1.344 11.96 1.8 12.536 2.424C13.136 3.048 13.604 3.84 13.94 4.8C14.3 5.736 14.54 6.84 14.66 8.112L11.204 9.048C11.132 8.088 10.988 7.212 10.772 6.42C10.556 5.604 10.172 4.956 9.62 4.476C9.092 3.972 8.324 3.72 7.316 3.72C6.308 3.72 5.516 3.996 4.94 4.548C4.388 5.076 4.112 5.868 4.112 6.924C4.112 7.812 4.256 8.544 4.544 9.12C4.856 9.696 5.348 10.284 6.02 10.884L10.952 15.204C12.056 16.164 13.028 17.316 13.868 18.66C14.708 19.98 15.128 21.552 15.128 23.376C15.128 24.816 14.828 26.064 14.228 27.12C13.628 28.152 12.8 28.944 11.744 29.496C10.712 30.048 9.512 30.324 8.144 30.324ZM23.5036 30.288C22.4236 30.288 21.5476 30.084 20.8756 29.676C20.2276 29.268 19.7476 28.692 19.4356 27.948C19.1476 27.204 19.0036 26.328 19.0036 25.32V11.748H16.8076V9.192H19.0036V3.108H22.8556V9.192H26.2036V11.748H22.8556V25.068C22.8556 25.884 22.9876 26.472 23.2516 26.832C23.5156 27.168 24.0196 27.336 24.7636 27.336C24.9556 27.336 25.1716 27.324 25.4116 27.3C25.6756 27.276 25.9276 27.252 26.1676 27.228V30.072C25.6876 30.144 25.2436 30.192 24.8356 30.216C24.4276 30.264 23.9836 30.288 23.5036 30.288ZM30.5458 33.42L29.3938 33.024L38.9698 5.952L40.3018 6.384L30.5458 33.42ZM34.7578 30.288C33.2218 30.288 32.0098 29.976 31.1218 29.352C30.2338 28.728 29.5978 27.84 29.2138 26.688C28.8538 25.536 28.6738 24.18 28.6738 22.62V16.572C28.6738 15.012 28.8538 13.656 29.2138 12.504C29.5978 11.352 30.2338 10.464 31.1218 9.84C32.0098 9.216 33.2218 8.904 34.7578 8.904C36.2938 8.904 37.4938 9.216 38.3578 9.84C39.2458 10.464 39.8698 11.352 40.2298 12.504C40.6138 13.656 40.8058 15.012 40.8058 16.572V22.62C40.8058 24.18 40.6138 25.536 40.2298 26.688C39.8698 27.84 39.2458 28.728 38.3578 29.352C37.4938 29.976 36.2938 30.288 34.7578 30.288ZM34.7578 27.444C35.5018 27.444 36.0178 27.228 36.3058 26.796C36.6178 26.364 36.7978 25.8 36.8458 25.104C36.9178 24.384 36.9538 23.64 36.9538 22.872V16.356C36.9538 15.564 36.9178 14.82 36.8458 14.124C36.7978 13.428 36.6178 12.864 36.3058 12.432C36.0178 11.976 35.5018 11.748 34.7578 11.748C34.0138 11.748 33.4858 11.976 33.1738 12.432C32.8618 12.864 32.6698 13.428 32.5978 14.124C32.5498 14.82 32.5258 15.564 32.5258 16.356V22.872C32.5258 23.64 32.5498 24.384 32.5978 25.104C32.6698 25.8 32.8618 26.364 33.1738 26.796C33.4858 27.228 34.0138 27.444 34.7578 27.444ZM45.5157 30V12.036H43.0317V9.192H45.5157V8.112C45.5157 6.816 45.6117 5.712 45.8037 4.8C46.0197 3.864 46.4517 3.144 47.0997 2.64C47.7477 2.136 48.7197 1.884 50.0157 1.884C50.4957 1.884 50.9157 1.908 51.2757 1.956C51.6597 1.98 52.0797 2.04 52.5357 2.136V4.944C52.3197 4.896 52.0797 4.86 51.8157 4.836C51.5517 4.788 51.3117 4.764 51.0957 4.764C50.3517 4.764 49.8717 5.016 49.6557 5.52C49.4637 6 49.3677 6.648 49.3677 7.464V9.192H52.5357V12.036H49.3677V30H45.5157ZM54.9117 30V12.036H52.4277V9.192H54.9117V8.112C54.9117 6.816 55.0077 5.712 55.1997 4.8C55.4157 3.864 55.8477 3.144 56.4957 2.64C57.1437 2.136 58.1157 1.884 59.4117 1.884C59.8917 1.884 60.3117 1.908 60.6717 1.956C61.0557 1.98 61.4757 2.04 61.9317 2.136V4.944C61.7157 4.896 61.4757 4.86 61.2117 4.836C60.9477 4.788 60.7077 4.764 60.4917 4.764C59.7477 4.764 59.2677 5.016 59.0517 5.52C58.8597 6 58.7637 6.648 58.7637 7.464V9.192H61.9317V12.036H58.7637V30H54.9117ZM63.3421 30V25.716H67.1941V30H63.3421Z" fill="white"/>
</svg>
