<svg width="25" height="25" viewBox="0 0 25 25" fill="none" xmlns="http://www.w3.org/2000/svg">
<path d="M17.7083 18.75C18.2608 18.75 18.7907 18.9695 19.1814 19.3602C19.5721 19.7509 19.7916 20.2808 19.7916 20.8333C19.7916 21.3859 19.5721 21.9158 19.1814 22.3065C18.7907 22.6972 18.2608 22.9167 17.7083 22.9167C17.1558 22.9167 16.6259 22.6972 16.2352 22.3065C15.8445 21.9158 15.625 21.3859 15.625 20.8333C15.625 19.6771 16.552 18.75 17.7083 18.75ZM1.04163 2.08334H4.44788L5.42704 4.16668H20.8333C21.1096 4.16668 21.3745 4.27642 21.5699 4.47177C21.7652 4.66712 21.875 4.93208 21.875 5.20834C21.875 5.38543 21.8229 5.56251 21.75 5.72918L18.0208 12.4688C17.6666 13.1042 16.9791 13.5417 16.1979 13.5417H8.43746L7.49996 15.2396L7.46871 15.3646C7.46871 15.4337 7.49615 15.4999 7.54498 15.5487C7.59382 15.5976 7.66006 15.625 7.72913 15.625H19.7916V17.7083H7.29163C6.73909 17.7083 6.20919 17.4888 5.81849 17.0981C5.42779 16.7074 5.20829 16.1775 5.20829 15.625C5.20829 15.2604 5.30204 14.9167 5.45829 14.625L6.87496 12.0729L3.12496 4.16668H1.04163V2.08334ZM7.29163 18.75C7.84416 18.75 8.37406 18.9695 8.76476 19.3602C9.15547 19.7509 9.37496 20.2808 9.37496 20.8333C9.37496 21.3859 9.15547 21.9158 8.76476 22.3065C8.37406 22.6972 7.84416 22.9167 7.29163 22.9167C6.73909 22.9167 6.20919 22.6972 5.81849 22.3065C5.42779 21.9158 5.20829 21.3859 5.20829 20.8333C5.20829 19.6771 6.13538 18.75 7.29163 18.75ZM16.6666 11.4583L19.5625 6.25001H6.39579L8.85413 11.4583H16.6666Z" fill="white"/>
</svg>
