<svg width="49" height="49" viewBox="0 0 49 49" fill="none" xmlns="http://www.w3.org/2000/svg">
<path d="M34.7084 36.75C35.7913 36.75 36.8299 37.1802 37.5957 37.946C38.3615 38.7118 38.7917 39.7504 38.7917 40.8333C38.7917 41.9163 38.3615 42.9549 37.5957 43.7207C36.8299 44.4865 35.7913 44.9167 34.7084 44.9167C33.6254 44.9167 32.5868 44.4865 31.821 43.7207C31.0552 42.9549 30.625 41.9163 30.625 40.8333C30.625 38.5671 32.4421 36.75 34.7084 36.75ZM2.04169 4.08334H8.71794L10.6371 8.16668H40.8334C41.3748 8.16668 41.8941 8.38178 42.277 8.76467C42.6599 9.14755 42.875 9.66686 42.875 10.2083C42.875 10.5554 42.7729 10.9025 42.63 11.2292L35.3209 24.4388C34.6267 25.6842 33.2792 26.5417 31.7479 26.5417H16.5375L14.7 29.8696L14.6388 30.1146C14.6388 30.25 14.6925 30.3798 14.7883 30.4755C14.884 30.5712 15.0138 30.625 15.1492 30.625H38.7917V34.7083H14.2917C13.2087 34.7083 12.1701 34.2781 11.4043 33.5124C10.6386 32.7466 10.2084 31.708 10.2084 30.625C10.2084 29.9104 10.3921 29.2367 10.6984 28.665L13.475 23.6629L6.12502 8.16668H2.04169V4.08334ZM14.2917 36.75C15.3747 36.75 16.4133 37.1802 17.179 37.946C17.9448 38.7118 18.375 39.7504 18.375 40.8333C18.375 41.9163 17.9448 42.9549 17.179 43.7207C16.4133 44.4865 15.3747 44.9167 14.2917 44.9167C13.2087 44.9167 12.1701 44.4865 11.4043 43.7207C10.6386 42.9549 10.2084 41.9163 10.2084 40.8333C10.2084 38.5671 12.0254 36.75 14.2917 36.75ZM32.6667 22.4583L38.3425 12.25H12.5359L17.3542 22.4583H32.6667Z" fill="white"/>
</svg>
