<svg width="26" height="26" viewBox="0 0 26 26" fill="none" xmlns="http://www.w3.org/2000/svg">
<path d="M23.1807 22.3194L17.9624 17.1011C19.4504 15.3898 20.2159 13.1676 20.0975 10.9029C19.9791 8.63824 18.986 6.508 17.3276 4.96124C15.6691 3.41449 13.4749 2.57207 11.2075 2.61156C8.94003 2.65105 6.7765 3.56937 5.17293 5.17293C3.56937 6.7765 2.65105 8.94003 2.61156 11.2075C2.57207 13.4749 3.41449 15.6691 4.96124 17.3276C6.508 18.986 8.63824 19.9791 10.9029 20.0975C13.1676 20.2159 15.3898 19.4504 17.1011 17.9624L22.3194 23.1807C22.4349 23.2883 22.5877 23.3469 22.7456 23.3441C22.9034 23.3413 23.0541 23.2774 23.1657 23.1657C23.2774 23.0541 23.3413 22.9034 23.3441 22.7456C23.3469 22.5877 23.2883 22.4349 23.1807 22.3194ZM3.8594 11.375C3.8594 9.88858 4.30018 8.43551 5.12601 7.19957C5.95184 5.96363 7.12562 5.00033 8.49892 4.43149C9.87222 3.86265 11.3834 3.71382 12.8413 4.00381C14.2991 4.2938 15.6383 5.0096 16.6894 6.06068C17.7405 7.11176 18.4562 8.45091 18.7462 9.9088C19.0362 11.3667 18.8874 12.8778 18.3186 14.2511C17.7497 15.6244 16.7864 16.7982 15.5505 17.624C14.3145 18.4499 12.8615 18.8907 11.375 18.8907C9.3825 18.8882 7.47228 18.0956 6.06335 16.6867C4.65442 15.2778 3.86182 13.3676 3.8594 11.375Z" fill="white"/>
</svg>
