<svg width="28" height="28" viewBox="0 0 28 28" fill="none" xmlns="http://www.w3.org/2000/svg">
<path d="M25.4286 23.5714L20.2343 18.375C21.7917 16.3455 22.5188 13.7996 22.2682 11.2538C22.0175 8.70788 20.8078 6.35269 18.8845 4.66593C16.9612 2.97917 14.4683 2.08715 11.9115 2.17083C9.35465 2.25451 6.9254 3.30762 5.11649 5.11652C3.30759 6.92543 2.25448 9.35468 2.1708 11.9115C2.08712 14.4683 2.97914 16.9612 4.6659 18.8845C6.35266 20.8078 8.70785 22.0175 11.2537 22.2682C13.7996 22.5189 16.3455 21.7918 18.375 20.2344L23.5736 25.4341C23.6957 25.5562 23.8406 25.653 24.0001 25.7191C24.1596 25.7851 24.3306 25.8192 24.5033 25.8192C24.6759 25.8192 24.8469 25.7851 25.0064 25.7191C25.1659 25.653 25.3109 25.5562 25.4329 25.4341C25.555 25.312 25.6519 25.167 25.7179 25.0075C25.784 24.848 25.818 24.677 25.818 24.5044C25.818 24.3317 25.784 24.1607 25.7179 24.0012C25.6519 23.8417 25.555 23.6968 25.4329 23.5747L25.4286 23.5714ZM4.81247 12.25C4.81247 10.779 5.24867 9.34104 6.06592 8.11795C6.88316 6.89486 8.04474 5.94158 9.40376 5.37865C10.7628 4.81572 12.2582 4.66843 13.701 4.95541C15.1437 5.24239 16.4689 5.95074 17.5091 6.9909C18.5492 8.03105 19.2576 9.35629 19.5446 10.799C19.8315 12.2418 19.6843 13.7372 19.1213 15.0962C18.5584 16.4552 17.6051 17.6168 16.382 18.4341C15.1589 19.2513 13.721 19.6875 12.25 19.6875C10.278 19.6855 8.38747 18.9012 6.9931 17.5069C5.59874 16.1125 4.8145 14.2219 4.81247 12.25Z" fill="white"/>
</svg>
